<svg width="20" height="20" viewBox="0 0 20 20" fill="none" xmlns="http://www.w3.org/2000/svg">
<path d="M11.02 0C12.82 0 13.2 0.0199999 14.12 0.0599999C15.18 0.11 15.91 0.28 16.54 0.53C17.2 0.78 17.76 1.13 18.31 1.68C18.87 2.23 19.21 2.79 19.47 3.45C19.72 4.08 19.88 4.81 19.93 5.88C19.98 6.83 19.99 7.2 19.99 9.2V10.8C19.99 12.8 19.98 13.17 19.93 14.12C19.9143 14.9468 19.7588 15.7651 19.47 16.54C19.21 17.2 18.87 17.76 18.32 18.31C17.76 18.87 17.2 19.21 16.54 19.47C15.91 19.72 15.18 19.88 14.12 19.93C13.17 19.98 12.79 19.99 10.79 19.99H9.20003C7.20003 19.99 6.83003 19.98 5.87003 19.93C5.04321 19.9141 4.22502 19.7586 3.45003 19.47C2.78364 19.2195 2.17968 18.8271 1.68003 18.32C1.16784 17.8186 0.771863 17.211 0.520031 16.54C0.231651 15.765 0.0761342 14.9468 0.0600312 14.12C0.0110083 13.0874 -0.00899953 12.0537 3.12792e-05 11.02V8.97C3.12792e-05 7.17 0.0200312 6.79 0.0600312 5.87C0.110031 4.81 0.280031 4.08 0.520031 3.45C0.780031 2.79 1.12003 2.23 1.68003 1.68C2.17521 1.16743 2.78047 0.774176 3.45003 0.53C4.22448 0.238206 5.04266 0.079305 5.87003 0.0599999C6.79003 0.0199999 7.17003 0 8.97003 0H11.02ZM11.04 1.8H8.95003C7.22003 1.8 6.85003 1.82 5.95003 1.86C4.98003 1.9 4.45003 2.06 4.10003 2.2C3.63003 2.38 3.30003 2.6 2.95003 2.95C2.60003 3.3 2.38003 3.63 2.20003 4.1C2.07003 4.45 1.90003 4.98 1.86003 5.96C1.82003 6.86 1.80003 7.22 1.80003 8.96V11.04C1.80003 12.78 1.82003 13.14 1.86003 14.04C1.90003 15.01 2.06003 15.54 2.20003 15.89C2.38003 16.36 2.60003 16.69 2.95003 17.04C3.30003 17.39 3.63003 17.61 4.10003 17.79C4.45003 17.93 4.98003 18.09 5.96003 18.13C6.93003 18.18 7.28003 18.19 9.44003 18.19H10.55C12.72 18.19 13.06 18.18 14.04 18.13C15.01 18.09 15.54 17.93 15.89 17.79C16.36 17.61 16.69 17.39 17.04 17.04C17.39 16.69 17.61 16.36 17.79 15.89C17.93 15.54 18.09 15.01 18.13 14.04C18.18 13.06 18.19 12.72 18.19 10.55V9.45C18.19 7.28 18.18 6.93 18.13 5.95C18.09 4.98 17.93 4.45 17.79 4.1C17.6291 3.66543 17.3728 3.27246 17.04 2.95C16.7178 2.61692 16.3248 2.3606 15.89 2.2C15.2969 1.98317 14.6715 1.86822 14.04 1.86C13.0408 1.81227 12.0404 1.79226 11.04 1.8ZM10 4.86C11.3619 4.86 12.668 5.40101 13.631 6.36401C14.594 7.32701 15.135 8.63311 15.135 9.995C15.135 11.3569 14.594 12.663 13.631 13.626C12.668 14.589 11.3619 15.13 10 15.13C8.63814 15.13 7.33204 14.589 6.36904 13.626C5.40604 12.663 4.86503 11.3569 4.86503 9.995C4.86503 8.63311 5.40604 7.32701 6.36904 6.36401C7.33204 5.40101 8.63814 4.86 10 4.86ZM10 6.66C9.11553 6.66 8.26726 7.01136 7.64183 7.6368C7.0164 8.26223 6.66503 9.1105 6.66503 9.995C6.66503 10.8795 7.0164 11.7278 7.64183 12.3532C8.26726 12.9786 9.11553 13.33 10 13.33C10.8845 13.33 11.7328 12.9786 12.3582 12.3532C12.9837 11.7278 13.335 10.8795 13.335 9.995C13.335 9.1105 12.9837 8.26223 12.3582 7.6368C11.7328 7.01136 10.8845 6.66 10 6.66ZM15.33 3.46C15.6483 3.46 15.9535 3.58643 16.1786 3.81147C16.4036 4.03652 16.53 4.34174 16.53 4.66C16.53 4.97826 16.4036 5.28348 16.1786 5.50853C15.9535 5.73357 15.6483 5.86 15.33 5.86C15.0118 5.86 14.7065 5.73357 14.4815 5.50853C14.2565 5.28348 14.13 4.97826 14.13 4.66C14.13 4.34174 14.2565 4.03652 14.4815 3.81147C14.7065 3.58643 15.0118 3.46 15.33 3.46Z" fill="white"/>
</svg>
